<?xml version="1.0" encoding="UTF-8"?>
<!-- Generator: https://ezgif.com/png-to-svg -->
<svg version="1.1" xmlns="http://www.w3.org/2000/svg" width="512" height="512">
<path d="M0 0 C0.98 -0.01 0.98 -0.01 1.98 -0.02 C4.14 -0.04 6.31 -0.05 8.47 -0.06 C9.21 -0.07 9.95 -0.07 10.71 -0.07 C14.63 -0.09 18.55 -0.11 22.46 -0.12 C26.5 -0.13 30.54 -0.16 34.58 -0.2 C37.69 -0.23 40.8 -0.24 43.91 -0.24 C45.4 -0.25 46.89 -0.26 48.38 -0.28 C50.46 -0.3 52.55 -0.3 54.64 -0.29 C55.82 -0.3 57.01 -0.3 58.23 -0.31 C62.26 0.29 64.39 1.6 67.51 4.18 C69.38 7.17 69.76 9.43 69.76 12.93 C69.76 13.89 69.77 14.85 69.77 15.84 C69.76 16.89 69.76 17.94 69.75 19.02 C69.76 20.7 69.76 20.7 69.76 22.41 C69.76 26.17 69.75 29.93 69.74 33.69 C69.74 36.38 69.74 39.07 69.74 41.76 C69.74 47.56 69.74 53.36 69.72 59.16 C69.71 67.54 69.7 75.93 69.7 84.31 C69.7 97.91 69.68 111.51 69.66 125.12 C69.64 138.33 69.63 151.54 69.62 164.76 C69.62 165.57 69.62 166.39 69.62 167.23 C69.62 171.31 69.62 175.4 69.61 179.48 C69.59 213.38 69.56 247.28 69.51 281.18 C70.42 281.16 71.33 281.15 72.26 281.13 C75.65 281.08 79.04 281.04 82.43 281.01 C83.89 281 85.35 280.98 86.82 280.95 C88.93 280.91 91.03 280.9 93.15 280.88 C94.41 280.87 95.68 280.85 96.99 280.84 C100.86 281.21 103.23 282.12 106.51 284.18 C109.48 288.62 108.88 292.82 108.89 298.05 C108.91 299.05 108.94 300.04 108.96 301.06 C108.99 308.39 108.99 308.39 106.61 312.31 C102.77 315.73 99.39 315.32 94.47 315.31 C93.63 315.31 92.78 315.32 91.91 315.32 C89.05 315.33 86.19 315.32 83.32 315.32 C81.26 315.33 79.2 315.33 77.14 315.34 C71.46 315.35 65.77 315.35 60.08 315.35 C53.96 315.36 47.84 315.37 41.71 315.37 C27.61 315.39 13.51 315.4 -0.59 315.41 C-7.55 315.42 -14.52 315.42 -21.48 315.43 C-45.31 315.44 -69.14 315.46 -92.97 315.47 C-94.46 315.47 -95.96 315.47 -97.46 315.47 C-98.2 315.47 -98.94 315.47 -99.71 315.47 C-103.47 315.47 -107.23 315.47 -110.99 315.47 C-112.11 315.47 -112.11 315.47 -113.25 315.47 C-137.45 315.48 -161.65 315.5 -185.86 315.54 C-211.43 315.57 -237.01 315.59 -262.58 315.59 C-265.39 315.59 -268.19 315.59 -271 315.6 C-271.69 315.6 -272.38 315.6 -273.09 315.6 C-284.23 315.6 -295.36 315.61 -306.49 315.63 C-317.68 315.65 -328.86 315.66 -340.04 315.65 C-346.11 315.65 -352.17 315.65 -358.23 315.67 C-363.78 315.68 -369.32 315.68 -374.86 315.67 C-376.88 315.67 -378.89 315.67 -380.9 315.68 C-383.62 315.7 -386.34 315.69 -389.07 315.67 C-389.86 315.68 -390.65 315.69 -391.46 315.7 C-395.18 315.66 -397.29 315.31 -400.45 313.27 C-404.66 308.95 -403.78 304.11 -403.86 298.36 C-403.9 297.37 -403.94 296.37 -403.98 295.34 C-404.06 287.95 -404.06 287.95 -401.15 284.04 C-396.83 281.01 -393.58 281.06 -388.41 281.08 C-387.39 281.08 -387.39 281.08 -386.34 281.08 C-384.16 281.09 -381.98 281.1 -379.8 281.11 C-378.32 281.12 -376.84 281.12 -375.36 281.13 C-371.74 281.14 -368.11 281.16 -364.49 281.18 C-364.49 280.57 -364.49 279.96 -364.5 279.33 C-364.56 264.52 -364.61 249.7 -364.64 234.89 C-364.66 227.72 -364.68 220.56 -364.71 213.4 C-364.74 207.15 -364.76 200.91 -364.77 194.66 C-364.77 191.36 -364.78 188.05 -364.8 184.74 C-364.83 181.05 -364.83 177.36 -364.83 173.67 C-364.84 172.57 -364.85 171.48 -364.86 170.35 C-364.82 160.84 -364.82 160.84 -361.49 157.18 C-357.62 154.12 -354.62 153.8 -349.76 153.79 C-348.77 153.78 -348.77 153.78 -347.77 153.77 C-345.61 153.76 -343.46 153.77 -341.3 153.78 C-339.79 153.78 -338.29 153.77 -336.78 153.77 C-333.63 153.77 -330.48 153.77 -327.33 153.79 C-323.3 153.8 -319.27 153.79 -315.24 153.78 C-312.13 153.76 -309.02 153.77 -305.92 153.78 C-304.43 153.78 -302.94 153.78 -301.46 153.77 C-299.38 153.76 -297.3 153.77 -295.22 153.79 C-293.45 153.79 -293.45 153.79 -291.64 153.8 C-287.31 154.32 -284.78 155.75 -281.87 158.97 C-280.21 161.62 -280.12 163.11 -280.13 166.21 C-280.12 167.23 -280.12 168.24 -280.11 169.29 C-280.13 170.4 -280.14 171.51 -280.15 172.65 C-280.15 174.4 -280.15 174.4 -280.15 176.2 C-280.15 180.07 -280.17 183.94 -280.19 187.82 C-280.2 190.5 -280.2 193.19 -280.21 195.87 C-280.22 202.22 -280.24 208.56 -280.27 214.91 C-280.31 222.14 -280.32 229.36 -280.34 236.59 C-280.37 251.45 -280.42 266.31 -280.49 281.18 C-269.6 281.18 -258.71 281.18 -247.49 281.18 C-247.51 276.06 -247.54 270.94 -247.57 265.67 C-247.65 248.78 -247.71 231.88 -247.75 214.99 C-247.77 204.75 -247.81 194.51 -247.86 184.26 C-247.91 175.33 -247.95 166.41 -247.96 157.48 C-247.96 152.75 -247.98 148.02 -248.02 143.29 C-248.05 138.84 -248.06 134.39 -248.05 129.94 C-248.05 128.31 -248.06 126.68 -248.08 125.05 C-248.11 122.81 -248.1 120.58 -248.09 118.35 C-248.1 116.48 -248.1 116.48 -248.1 114.57 C-247.28 110.03 -245.76 108.4 -242.49 105.18 C-239.15 104.06 -236.61 104.04 -233.09 104.02 C-232.13 104.01 -232.13 104.01 -231.14 104 C-229.01 103.99 -226.88 103.98 -224.75 103.97 C-223.27 103.97 -221.78 103.96 -220.3 103.96 C-217.19 103.95 -214.08 103.94 -210.97 103.94 C-206.99 103.93 -203.01 103.91 -199.03 103.88 C-195.97 103.86 -192.9 103.85 -189.84 103.85 C-188.37 103.85 -186.9 103.84 -185.44 103.83 C-183.38 103.81 -181.33 103.81 -179.27 103.82 C-178.1 103.82 -176.94 103.81 -175.73 103.81 C-171.97 104.24 -169.66 105.12 -166.49 107.18 C-163.43 111.2 -163.12 114.21 -163.13 119.19 C-163.12 119.89 -163.12 120.58 -163.12 121.3 C-163.11 123.62 -163.13 125.94 -163.15 128.26 C-163.15 129.92 -163.15 131.59 -163.15 133.26 C-163.14 137.77 -163.16 142.29 -163.18 146.81 C-163.2 151.53 -163.2 156.26 -163.21 160.98 C-163.22 169.92 -163.24 178.86 -163.27 187.81 C-163.31 197.99 -163.32 208.17 -163.34 218.35 C-163.37 239.29 -163.42 260.23 -163.49 281.18 C-152.93 281.18 -142.37 281.18 -131.49 281.18 C-131.5 276.85 -131.5 276.85 -131.51 272.44 C-131.57 246.01 -131.61 219.58 -131.64 193.15 C-131.64 189.68 -131.65 186.22 -131.65 182.76 C-131.65 182.07 -131.65 181.38 -131.65 180.67 C-131.67 169.5 -131.69 158.33 -131.72 147.17 C-131.75 135.71 -131.76 124.25 -131.77 112.79 C-131.77 106.36 -131.78 99.92 -131.8 93.49 C-131.83 87.43 -131.83 81.38 -131.83 75.32 C-131.83 73.1 -131.83 70.87 -131.85 68.65 C-131.86 65.61 -131.86 62.58 -131.85 59.55 C-131.86 58.66 -131.87 57.78 -131.87 56.87 C-131.83 51.08 -130.9 47.63 -126.73 43.39 C-123.62 41.71 -121.21 41.8 -117.69 41.79 C-116.67 41.78 -116.67 41.78 -115.64 41.77 C-113.41 41.76 -111.19 41.77 -108.96 41.78 C-107.41 41.78 -105.86 41.77 -104.31 41.77 C-101.05 41.77 -97.8 41.77 -94.55 41.79 C-90.39 41.8 -86.23 41.79 -82.07 41.78 C-78.87 41.76 -75.66 41.77 -72.46 41.78 C-70.93 41.78 -69.39 41.78 -67.86 41.77 C-65.71 41.76 -63.56 41.77 -61.42 41.79 C-60.2 41.79 -58.98 41.79 -57.72 41.8 C-54.17 42.21 -52.32 43.03 -49.49 45.18 C-47.46 48.22 -47.24 48.78 -47.24 52.18 C-47.24 53 -47.23 53.82 -47.23 54.66 C-47.24 55.56 -47.24 56.46 -47.25 57.38 C-47.24 58.81 -47.24 58.81 -47.24 60.27 C-47.24 63.49 -47.25 66.7 -47.26 69.91 C-47.26 72.2 -47.26 74.5 -47.26 76.79 C-47.26 83.04 -47.27 89.29 -47.28 95.53 C-47.3 102.05 -47.3 108.58 -47.3 115.1 C-47.31 126.05 -47.32 137 -47.34 147.95 C-47.36 159.23 -47.37 170.51 -47.38 181.79 C-47.38 182.49 -47.38 183.18 -47.38 183.9 C-47.38 187.39 -47.38 190.88 -47.39 194.36 C-47.41 223.3 -47.44 252.24 -47.49 281.18 C-36.6 281.18 -25.71 281.18 -14.49 281.18 C-14.5 277.76 -14.51 274.34 -14.52 270.82 C-14.62 239.47 -14.7 208.12 -14.74 176.77 C-14.75 172.66 -14.76 168.55 -14.76 164.44 C-14.76 163.62 -14.76 162.81 -14.77 161.96 C-14.79 148.72 -14.83 135.47 -14.87 122.23 C-14.92 108.64 -14.95 95.05 -14.96 81.46 C-14.96 73.07 -14.99 64.68 -15.03 56.3 C-15.05 50.55 -15.06 44.8 -15.06 39.05 C-15.05 35.73 -15.06 32.41 -15.08 29.09 C-15.11 25.5 -15.1 21.9 -15.09 18.3 C-15.1 17.25 -15.12 16.2 -15.13 15.12 C-15.09 10.56 -15.03 7.21 -12.14 3.54 C-8.14 -0.02 -5.18 0.04 0 0 Z " fill="#3F72C8" transform="translate(403.487548828125,196.822998046875)"/>
<path d="M0 0 C0.98 -0.01 0.98 -0.01 1.98 -0.02 C4.14 -0.04 6.31 -0.05 8.47 -0.06 C9.58 -0.07 9.58 -0.07 10.71 -0.07 C14.63 -0.09 18.55 -0.11 22.46 -0.12 C26.5 -0.13 30.54 -0.16 34.58 -0.2 C37.69 -0.23 40.8 -0.24 43.91 -0.24 C45.4 -0.25 46.89 -0.26 48.38 -0.28 C50.46 -0.3 52.55 -0.3 54.64 -0.29 C55.82 -0.3 57.01 -0.3 58.23 -0.31 C62.26 0.29 64.39 1.6 67.51 4.18 C69.39 7.17 69.76 9.44 69.76 12.95 C69.76 13.91 69.77 14.87 69.77 15.86 C69.76 17.45 69.76 17.45 69.75 19.06 C69.75 20.18 69.76 21.3 69.76 22.46 C69.76 26.24 69.75 30.01 69.74 33.78 C69.74 36.48 69.74 39.18 69.74 41.88 C69.74 47.7 69.74 53.52 69.72 59.34 C69.71 67.76 69.7 76.17 69.7 84.59 C69.7 98.24 69.68 111.89 69.66 125.54 C69.64 138.81 69.63 152.07 69.62 165.33 C69.62 166.15 69.62 166.97 69.62 167.81 C69.62 171.91 69.62 176.01 69.61 180.11 C69.59 214.13 69.56 248.15 69.51 282.18 C41.79 282.18 14.07 282.18 -14.49 282.18 C-14.6 247.25 -14.69 212.31 -14.74 177.38 C-14.75 173.26 -14.76 169.14 -14.76 165.01 C-14.76 164.19 -14.76 163.37 -14.77 162.53 C-14.79 149.23 -14.83 135.94 -14.87 122.64 C-14.92 109 -14.95 95.36 -14.96 81.73 C-14.96 73.31 -14.99 64.89 -15.03 56.47 C-15.05 50.7 -15.06 44.93 -15.06 39.16 C-15.05 35.83 -15.06 32.5 -15.08 29.17 C-15.11 25.56 -15.1 21.95 -15.09 18.34 C-15.1 17.29 -15.12 16.23 -15.13 15.15 C-15.09 10.58 -15.04 7.22 -12.14 3.54 C-8.14 -0.02 -5.18 0.04 0 0 Z " fill="#B6E345" transform="translate(403.487548828125,196.822998046875)"/>
<path d="M0 0 C0.81 -0.01 1.62 -0.01 2.45 -0.02 C5.14 -0.04 7.83 -0.05 10.52 -0.06 C11.89 -0.07 11.89 -0.07 13.3 -0.07 C18.15 -0.09 23.01 -0.11 27.87 -0.12 C32.88 -0.13 37.9 -0.16 42.91 -0.2 C46.77 -0.23 50.63 -0.24 54.48 -0.24 C56.33 -0.25 58.18 -0.26 60.03 -0.28 C62.62 -0.3 65.21 -0.3 67.8 -0.29 C68.56 -0.31 69.32 -0.32 70.1 -0.33 C75.28 -0.28 78.16 0.93 82.16 4.18 C86.77 9.29 87.31 13.17 87.33 19.86 C87.34 20.64 87.35 21.42 87.35 22.22 C87.37 24.81 87.39 27.39 87.4 29.98 C87.4 30.86 87.4 31.74 87.41 32.65 C87.43 37.33 87.44 42.01 87.45 46.68 C87.46 51.51 87.5 56.33 87.54 61.16 C87.56 64.87 87.57 68.58 87.58 72.3 C87.58 74.08 87.59 75.85 87.61 77.63 C87.64 80.13 87.63 82.62 87.63 85.11 C87.65 86.2 87.65 86.2 87.67 87.32 C87.61 92.39 86.35 95.28 83.16 99.18 C79.3 101.11 74.59 100.45 70.34 100.49 C69.35 100.52 68.35 100.55 67.32 100.58 C59.93 100.64 59.93 100.64 56.02 98.28 C52.68 94.51 52.95 91.16 52.84 86.33 C52.82 85.55 52.8 84.78 52.78 83.98 C52.71 81.5 52.65 79.03 52.59 76.55 C52.55 74.87 52.51 73.2 52.46 71.52 C52.36 67.41 52.26 63.29 52.16 59.18 C51.68 59.65 51.21 60.13 50.72 60.62 C39.15 72.24 27.57 83.85 15.99 95.45 C10.39 101.06 4.79 106.67 -0.81 112.29 C-5.68 117.19 -10.56 122.08 -15.45 126.97 C-18.03 129.56 -20.62 132.15 -23.2 134.74 C-26.08 137.64 -28.96 140.53 -31.85 143.41 C-32.71 144.28 -33.56 145.14 -34.44 146.03 C-35.23 146.81 -36.02 147.6 -36.83 148.41 C-37.85 149.43 -37.85 149.43 -38.9 150.48 C-43.15 154.19 -46.25 154.39 -51.84 154.23 C-53.28 154.19 -54.72 154.15 -56.17 154.12 C-56.93 154.1 -57.69 154.08 -58.48 154.05 C-62.56 153.95 -66.64 153.92 -70.72 153.88 C-75.89 153.82 -81.07 153.75 -86.24 153.58 C-106.44 152.07 -106.44 152.07 -124.6 158.87 C-128.14 162.3 -130.97 166.01 -133.57 170.18 C-135.31 172.91 -137.36 175.1 -139.59 177.43 C-140.27 178.19 -140.95 178.95 -141.65 179.73 C-144.31 182.7 -147.01 185.63 -149.72 188.55 C-153.62 192.77 -157.52 197 -161.41 201.24 C-161.85 201.73 -162.3 202.22 -162.77 202.73 C-163.67 203.72 -164.58 204.7 -165.48 205.69 C-167.77 208.19 -170.06 210.68 -172.34 213.18 C-173.26 214.18 -174.18 215.18 -175.09 216.18 C-191.59 234.18 -191.59 234.18 -192.97 235.68 C-193.88 236.68 -194.8 237.67 -195.71 238.67 C-198.04 241.21 -200.37 243.75 -202.7 246.28 C-203.4 247.05 -203.4 247.05 -204.12 247.83 C-205.05 248.84 -205.99 249.86 -206.92 250.87 C-209.02 253.15 -211.07 255.45 -213.07 257.83 C-213.73 258.62 -214.4 259.42 -215.09 260.24 C-215.65 260.93 -216.22 261.62 -216.8 262.34 C-222.79 267.73 -229.37 267.61 -237.02 267.57 C-238.68 267.57 -238.68 267.57 -240.37 267.58 C-244.01 267.59 -247.65 267.59 -251.29 267.58 C-253.82 267.58 -256.36 267.58 -258.89 267.58 C-264.19 267.59 -269.5 267.58 -274.8 267.57 C-280.93 267.55 -287.05 267.56 -293.18 267.57 C-299.08 267.59 -304.99 267.59 -310.89 267.58 C-313.4 267.58 -315.91 267.58 -318.42 267.59 C-321.92 267.59 -325.42 267.58 -328.92 267.57 C-330.48 267.57 -330.48 267.57 -332.06 267.58 C-340.85 267.51 -340.85 267.51 -344.84 264.18 C-348.58 259.78 -348.33 255.24 -348.28 249.74 C-348.3 248.91 -348.32 248.07 -348.34 247.21 C-348.34 241.58 -347.52 238.49 -343.84 234.18 C-341.54 233.02 -340.28 233.06 -337.72 233.09 C-336.43 233.09 -336.43 233.09 -335.11 233.1 C-333.68 233.12 -333.68 233.12 -332.23 233.13 C-330.16 233.14 -328.09 233.16 -326.02 233.17 C-324.91 233.18 -323.81 233.18 -322.68 233.19 C-315.62 233.23 -308.57 233.22 -301.52 233.22 C-295.32 233.22 -289.12 233.25 -282.92 233.3 C-276.93 233.36 -270.93 233.37 -264.94 233.34 C-262.66 233.34 -260.38 233.35 -258.1 233.39 C-245.61 234.14 -245.61 234.14 -234.27 230 C-231.76 227.52 -229.8 225.11 -227.84 222.18 C-226.78 220.93 -225.7 219.7 -224.59 218.49 C-224.05 217.85 -223.5 217.22 -222.94 216.56 C-220.02 213.24 -216.99 210.03 -213.97 206.8 C-209.29 201.81 -204.67 196.79 -200.11 191.69 C-196.91 188.14 -193.67 184.64 -190.43 181.14 C-187.04 177.47 -183.65 173.8 -180.28 170.11 C-179.83 169.62 -179.38 169.13 -178.92 168.63 C-178.01 167.64 -177.11 166.65 -176.2 165.66 C-173.92 163.17 -171.63 160.67 -169.34 158.18 C-168.43 157.18 -167.51 156.18 -166.59 155.18 C-164.76 153.18 -162.93 151.18 -161.09 149.18 C-160.64 148.68 -160.18 148.19 -159.72 147.68 C-158.8 146.68 -157.89 145.68 -156.97 144.69 C-154.63 142.14 -152.3 139.58 -149.99 137 C-135.66 121.09 -135.66 121.09 -129.84 120.18 C-127.19 120.58 -127.19 120.58 -124.11 121.3 C-102.24 125.93 -75.03 129.62 -54.98 117.44 C-38.69 106.2 -24.84 91.49 -11.34 77.11 C-10.87 76.61 -10.4 76.11 -9.91 75.6 C2.45 62.42 14.47 48.95 26.16 35.18 C25.22 35.17 24.28 35.16 23.31 35.15 C19.81 35.1 16.31 35.04 12.81 34.97 C11.3 34.94 9.79 34.92 8.28 34.91 C6.1 34.88 3.92 34.84 1.74 34.79 C0.43 34.77 -0.88 34.74 -2.22 34.72 C-6.39 34.09 -8.58 32.79 -11.84 30.18 C-14.66 26.06 -14.21 21.62 -14.22 16.8 C-14.24 15.96 -14.27 15.13 -14.29 14.26 C-14.32 8.6 -13.55 5.52 -9.84 1.18 C-6.73 -0.38 -3.42 0.01 0 0 Z " fill="#DD5690" transform="translate(385.8427734375,-0.177001953125)"/>
<path d="M0 0 C1.01 -0.01 1.01 -0.01 2.05 -0.02 C4.27 -0.03 6.5 -0.02 8.73 -0.01 C10.28 -0.01 11.83 -0.02 13.38 -0.02 C16.63 -0.02 19.88 -0.02 23.13 -0 C27.29 0.01 31.45 0 35.62 -0.01 C38.82 -0.02 42.02 -0.02 45.23 -0.01 C46.76 -0.01 48.3 -0.01 49.83 -0.02 C51.98 -0.03 54.12 -0.02 56.27 0 C57.49 0 58.71 0 59.97 0.01 C63.52 0.43 65.37 1.24 68.2 3.39 C70.23 6.43 70.45 7 70.45 10.41 C70.45 11.23 70.45 12.05 70.46 12.9 C70.45 14.25 70.45 14.25 70.44 15.63 C70.44 16.59 70.44 17.55 70.45 18.54 C70.45 21.76 70.44 24.98 70.43 28.21 C70.43 30.52 70.43 32.82 70.43 35.13 C70.43 41.4 70.42 47.67 70.4 53.94 C70.39 60.49 70.39 67.04 70.39 73.59 C70.38 84.59 70.37 95.59 70.35 106.59 C70.33 117.92 70.32 129.25 70.31 140.58 C70.31 141.28 70.31 141.97 70.31 142.69 C70.31 146.2 70.3 149.7 70.3 153.2 C70.28 182.26 70.24 211.33 70.2 240.39 C42.48 240.39 14.76 240.39 -13.8 240.39 C-13.87 210.92 -13.92 181.45 -13.95 151.98 C-13.96 148.5 -13.96 145.02 -13.97 141.54 C-13.97 140.85 -13.97 140.16 -13.97 139.44 C-13.98 128.23 -14 117.01 -14.03 105.8 C-14.06 94.29 -14.08 82.78 -14.08 71.27 C-14.09 64.81 -14.1 58.35 -14.12 51.88 C-14.14 45.8 -14.14 39.72 -14.14 33.64 C-14.14 31.4 -14.15 29.17 -14.16 26.94 C-14.17 23.89 -14.17 20.84 -14.16 17.8 C-14.17 16.46 -14.17 16.46 -14.19 15.11 C-14.15 9.31 -13.23 5.85 -9.04 1.6 C-5.94 -0.08 -3.52 0.01 0 0 Z " fill="#8DBCFA" transform="translate(285.800537109375,238.61181640625)"/>
<path d="M0 0 C0.64 -0 1.29 -0.01 1.95 -0.02 C4.08 -0.03 6.21 -0.04 8.34 -0.04 C9.83 -0.05 11.31 -0.05 12.79 -0.06 C15.9 -0.07 19.02 -0.08 22.13 -0.08 C26.1 -0.08 30.08 -0.11 34.06 -0.14 C37.13 -0.16 40.19 -0.16 43.26 -0.16 C44.72 -0.17 46.19 -0.17 47.65 -0.19 C49.71 -0.2 51.76 -0.2 53.82 -0.2 C54.99 -0.2 56.16 -0.2 57.36 -0.21 C61.12 0.22 63.43 1.11 66.6 3.16 C69.67 7.19 69.98 10.22 69.97 15.22 C69.97 15.91 69.97 16.61 69.97 17.33 C69.98 19.67 69.96 22 69.94 24.33 C69.94 26.01 69.94 27.69 69.95 29.36 C69.95 33.91 69.93 38.45 69.91 43 C69.89 47.75 69.89 52.5 69.88 57.25 C69.88 66.25 69.85 75.24 69.82 84.24 C69.78 96.39 69.76 108.55 69.75 120.71 C69.72 139.86 69.66 159.01 69.6 178.16 C41.88 178.16 14.16 178.16 -14.4 178.16 C-14.6 135.52 -14.6 135.52 -14.64 117.67 C-14.67 105.34 -14.7 93 -14.77 80.67 C-14.82 71.69 -14.86 62.71 -14.87 53.73 C-14.87 48.97 -14.89 44.22 -14.92 39.46 C-14.96 34.99 -14.97 30.51 -14.96 26.03 C-14.96 24.39 -14.97 22.75 -14.99 21.11 C-15.02 18.86 -15.01 16.62 -15 14.37 C-15 13.12 -15.01 11.86 -15.01 10.57 C-14.19 6.01 -12.67 4.39 -9.4 1.16 C-6.05 0.05 -3.52 0.02 0 0 Z " fill="#E28C34" transform="translate(170.395751953125,300.8388671875)"/>
<path d="M0 0 C0.66 -0.01 1.31 -0.01 1.99 -0.02 C4.14 -0.03 6.3 -0.02 8.46 -0.01 C9.96 -0.01 11.47 -0.02 12.97 -0.02 C16.12 -0.02 19.27 -0.02 22.42 -0 C26.46 0.01 30.49 0 34.52 -0.01 C37.63 -0.02 40.73 -0.02 43.84 -0.01 C45.33 -0.01 46.81 -0.01 48.3 -0.02 C50.38 -0.03 52.46 -0.02 54.54 0 C56.31 0 56.31 0 58.12 0.01 C62.44 0.53 64.98 1.96 67.89 5.18 C69.55 7.84 69.64 9.35 69.63 12.46 C69.63 13.49 69.64 14.51 69.64 15.56 C69.63 16.68 69.62 17.8 69.61 18.95 C69.61 20.72 69.61 20.72 69.61 22.53 C69.61 25.76 69.59 28.99 69.57 32.23 C69.55 35.61 69.55 38.99 69.55 42.37 C69.54 48.77 69.52 55.17 69.49 61.57 C69.45 69.57 69.43 77.57 69.42 85.57 C69.39 99.84 69.33 114.12 69.27 128.39 C41.55 128.39 13.83 128.39 -14.73 128.39 C-14.85 98.6 -14.85 98.6 -14.88 83.9 C-14.9 75.94 -14.92 67.99 -14.96 60.03 C-14.99 53.74 -15.01 47.44 -15.01 41.14 C-15.02 37.81 -15.03 34.47 -15.05 31.14 C-15.07 27.42 -15.07 23.69 -15.07 19.97 C-15.08 18.87 -15.09 17.76 -15.1 16.63 C-15.06 7.04 -15.06 7.04 -11.73 3.39 C-7.86 0.33 -4.86 0.01 0 0 Z " fill="#F6E165" transform="translate(53.73046875,350.61181640625)"/>
<path d="M0 0 C0.98 -0.01 0.98 -0.01 1.98 -0.02 C4.14 -0.04 6.31 -0.05 8.47 -0.06 C9.58 -0.07 9.58 -0.07 10.71 -0.07 C14.63 -0.09 18.55 -0.11 22.46 -0.12 C26.5 -0.13 30.54 -0.16 34.58 -0.2 C37.69 -0.23 40.8 -0.24 43.91 -0.24 C45.4 -0.25 46.89 -0.26 48.38 -0.28 C50.46 -0.3 52.55 -0.3 54.64 -0.29 C55.82 -0.3 57.01 -0.3 58.23 -0.31 C62.74 0.36 66.1 2.3 68.86 5.97 C70.4 11.17 70.01 16.8 70.05 22.19 C70.07 24.47 70.15 26.75 70.23 29.03 C70.41 39.69 70.41 39.69 67.98 43.69 C66.25 45.42 64.51 46.78 62.51 48.18 C61.87 49 61.23 49.83 60.57 50.68 C58.18 53.58 55.5 55.86 52.64 58.3 C50.56 60.14 48.63 62.06 46.7 64.05 C42.84 67.97 38.69 71.4 34.41 74.84 C31.54 77.15 28.75 79.53 25.95 81.93 C18.83 87.87 11.3 93.22 3.74 98.59 C1.59 100.12 -0.55 101.67 -2.68 103.23 C-3.65 103.93 -3.65 103.93 -4.64 104.65 C-5.84 105.52 -7.05 106.4 -8.25 107.28 C-12.26 110.18 -12.26 110.18 -14.49 110.18 C-14.6 96.85 -14.69 83.53 -14.75 70.2 C-14.77 64.01 -14.81 57.82 -14.86 51.64 C-14.92 45.66 -14.95 39.69 -14.96 33.72 C-14.97 31.44 -14.99 29.16 -15.02 26.89 C-15.05 23.7 -15.06 20.5 -15.06 17.31 C-15.07 16.37 -15.09 15.43 -15.11 14.46 C-15.08 10.1 -14.9 7.1 -12.14 3.61 C-8.16 -0.04 -5.22 0.04 0 0 Z " fill="#C7E972" transform="translate(403.487548828125,196.822998046875)"/>
<path d="M0 0 C0 21.78 0 43.56 0 66 C-27.72 66 -55.44 66 -84 66 C-84 47.85 -84 29.7 -84 11 C-75.74 10.13 -75.74 10.13 -67.31 9.25 C-36.26 6.02 -36.26 6.02 -5.55 0.52 C-3 0 -3 0 0 0 Z " fill="#EFD234" transform="translate(123,413)"/>
</svg>
